<svg width="57" height="57" viewBox="0 0 57 57" fill="none" xmlns="http://www.w3.org/2000/svg">
<path d="M0 0H16V16H0V0Z" fill="white"/>
<path d="M0 0H16V16H0V0Z" fill="white"/>
<path d="M20 0H37V16H20V0Z" fill="white"/>
<path d="M20 0H37V16H20V0Z" fill="white"/>
<path d="M20 20H37V37H20V20Z" fill="white"/>
<path d="M20 20H37V37H20V20Z" fill="white"/>
<path d="M41 0H57V16H41V0Z" fill="white"/>
<path d="M41 0H57V16H41V0Z" fill="white"/>
<path d="M41 20H57V37H41V20Z" fill="white"/>
<path d="M41 20H57V37H41V20Z" fill="white"/>
<path d="M41 41H57V57H41V41Z" fill="white"/>
<path d="M41 41H57V57H41V41Z" fill="white"/>
</svg>
