<svg width="75" height="75" viewBox="0 0 173 237" fill="none" xmlns="http://www.w3.org/2000/svg">
<mask id="mask0_318_64" style="mask-type:luminance" maskUnits="userSpaceOnUse" x="0" y="0" width="173" height="237">
<path d="M172.97 0H0V236.67H172.97V0Z" fill="white"/>
</mask>
<g mask="url(#mask0_318_64)">
<path d="M0 236.07V199.69H17C24.91 199.69 29.22 205.04 29.22 211.42C29.22 217.8 24.86 223.15 17 223.15H7.75V236.07H0ZM21.33 211.39C21.33 208.34 19.04 206.48 15.98 206.48H7.75V216.3H15.98C19.04 216.3 21.33 214.39 21.33 211.39Z" fill="#fff"/>
<path d="M32.18 222.87C32.18 215.4 37.42 209.08 46.09 209.08C54.76 209.08 60.09 215.4 60.09 222.87C60.09 230.34 54.85 236.73 46.09 236.73C37.33 236.73 32.18 230.39 32.18 222.87ZM52.85 222.87C52.85 218.78 50.4 215.24 46.09 215.24C41.78 215.24 39.38 218.78 39.38 222.87C39.38 226.96 41.78 230.56 46.09 230.56C50.4 230.56 52.85 227.02 52.85 222.87Z" fill="#fff"/>
<path d="M64.58 222.87C64.58 214.8 70.41 209.08 78.58 209.08C83.98 209.08 87.25 211.42 88.99 213.82L84.47 218.08C83.862 217.17 83.0306 216.431 82.0554 215.934C81.0802 215.436 79.9938 215.198 78.9 215.24C74.7 215.24 71.76 218.29 71.76 222.87C71.76 227.45 74.7 230.56 78.9 230.56C79.9888 230.578 81.0655 230.33 82.0363 229.836C83.0071 229.343 83.8426 228.62 84.47 227.73L88.99 231.93C87.25 234.38 83.99 236.73 78.58 236.73C70.45 236.73 64.58 231 64.58 222.87Z" fill="#fff"/>
<path d="M100.51 236.07V215.78H93.15V209.73H114.85V215.78H107.49V236.07H100.51Z" fill="#fff"/>
<path d="M117.53 222.87C117.477 221.061 117.791 219.26 118.454 217.575C119.116 215.891 120.113 214.358 121.384 213.069C122.655 211.78 124.173 210.763 125.848 210.077C127.524 209.391 129.32 209.052 131.13 209.08C138.99 209.08 144.33 214.97 144.33 223.58V225.11H124.78C125.22 228.44 127.89 231.22 132.36 231.22C134.925 231.174 137.396 230.249 139.36 228.6L142.36 233.07C139.75 235.47 135.6 236.73 131.51 236.73C123.51 236.73 117.44 231.33 117.44 222.87M131.13 214.58C129.506 214.537 127.927 215.118 126.72 216.205C125.512 217.292 124.768 218.8 124.64 220.42H137.64C137.607 219.607 137.412 218.809 137.066 218.073C136.72 217.337 136.23 216.677 135.625 216.133C135.021 215.589 134.313 215.171 133.545 214.904C132.776 214.638 131.962 214.527 131.15 214.58" fill="#fff"/>
<path d="M165.68 236.07L159.68 227.18L153.63 236.07H145.94L155.26 222.55L146.48 209.73H154.23L159.68 217.86L165.08 209.73H172.82L163.99 222.55L173.42 236.07H165.68Z" fill="#fff"/>
<path d="M150.13 80.74V22.53H92.26L114.8 0H172.83V28.36V58.04L150.13 80.74Z" fill="#fff"/>
<path d="M172.83 172.77L114.8 172.76L92.26 150.23H150.13V92.11L172.83 114.81V172.77Z" fill="#fff"/>
<path d="M0.0700073 58.04V28.36V0H58.1L80.64 22.54H22.77V80.74L0.0700073 58.04Z" fill="#fff"/>
<path d="M0.0599976 114.81L22.77 92.1V150.22H80.63L58.09 172.76H0.0699976L0.0599976 114.81Z" fill="#fff"/>
</g>
</svg>
