<svg width="75" height="75" viewBox="0 0 186 221" fill="none" xmlns="http://www.w3.org/2000/svg">
<path d="M185.6 0H132.79V52.81H185.6V0Z" fill="#D6BEAF"/>
<path d="M119.17 66.43H66.36V119.24H119.17V66.43Z" fill="#D6BEAF"/>
<path d="M185.6 66.43H132.79V119.24H185.6V66.43Z" fill="#D6BEAF"/>
<path d="M185.57 132.8H132.76V185.61H185.57V132.8Z" fill="#D6BEAF"/>
<path d="M52.81 0H0V52.81H52.81V0Z" fill="#D6BEAF"/>
<path d="M119.17 0H66.36V52.81H119.17V0Z" fill="#D6BEAF"/>
<path d="M7.19002 176.32H3.93002V169.81H7.24002C7.66654 169.787 8.09298 169.856 8.49082 170.011C8.88866 170.167 9.24873 170.405 9.54693 170.711C9.84514 171.017 10.0746 171.383 10.22 171.785C10.3654 172.186 10.4234 172.614 10.39 173.04C10.4319 173.474 10.3785 173.912 10.2336 174.324C10.0887 174.735 9.85584 175.11 9.55119 175.423C9.24654 175.735 8.87746 175.977 8.46966 176.132C8.06186 176.287 7.62517 176.351 7.19002 176.32ZM7.80002 167.25H0.900024V185.25H3.90002V178.95H7.80002C8.56786 178.972 9.33192 178.834 10.0433 178.545C10.7548 178.255 11.3979 177.82 11.9316 177.267C12.4652 176.715 12.8777 176.057 13.1426 175.336C13.4076 174.615 13.5191 173.847 13.47 173.08C13.5232 172.316 13.4139 171.55 13.1494 170.831C12.885 170.113 12.4712 169.458 11.9355 168.911C11.3999 168.364 10.7543 167.937 10.0415 167.658C9.32871 167.378 8.56477 167.253 7.80002 167.29" fill="#D8BBAA"/>
<path d="M22.08 183.04C21.2328 183.088 20.3908 182.881 19.6627 182.445C18.9346 182.009 18.3539 181.365 17.9959 180.596C17.6379 179.826 17.5189 178.967 17.6544 178.13C17.7899 177.292 18.1736 176.514 18.7559 175.897C19.3382 175.28 20.0922 174.852 20.9206 174.668C21.7489 174.484 22.6134 174.552 23.4022 174.865C24.1911 175.178 24.868 175.72 25.3453 176.421C25.8227 177.123 26.0787 177.951 26.08 178.8C26.1056 179.343 26.0214 179.886 25.8325 180.397C25.6435 180.907 25.3538 181.374 24.9804 181.769C24.6071 182.165 24.1579 182.482 23.6595 182.7C23.1612 182.918 22.624 183.034 22.08 183.04ZM22.08 172.04C21.1667 171.99 20.2528 172.127 19.3941 172.442C18.5355 172.757 17.7501 173.244 17.0859 173.873C16.4218 174.502 15.8928 175.26 15.5312 176.1C15.1697 176.94 14.9833 177.845 14.9833 178.76C14.9833 179.675 15.1697 180.58 15.5312 181.42C15.8928 182.26 16.4218 183.018 17.0859 183.647C17.7501 184.276 18.5355 184.763 19.3941 185.078C20.2528 185.393 21.1667 185.53 22.08 185.48C22.9933 185.53 23.9072 185.393 24.7659 185.078C25.6245 184.763 26.4099 184.276 27.0741 183.647C27.7383 183.018 28.2673 182.26 28.6288 181.42C28.9903 180.58 29.1768 179.675 29.1768 178.76C29.1768 177.845 28.9903 176.94 28.6288 176.1C28.2673 175.26 27.7383 174.502 27.0741 173.873C26.4099 173.244 25.6245 172.757 24.7659 172.442C23.9072 172.127 22.9933 171.99 22.08 172.04Z" fill="#D8BBAA"/>
<path d="M38.3 185.52C40.2331 185.553 42.1039 184.836 43.52 183.52L42.41 181.47C41.3612 182.428 40.0092 182.987 38.59 183.05C38.0261 183.067 37.4647 182.968 36.9407 182.759C36.4167 182.55 35.9412 182.235 35.5437 181.835C35.1462 181.434 34.8351 180.957 34.6298 180.431C34.4244 179.906 34.3292 179.344 34.35 178.78C34.3206 178.226 34.4066 177.672 34.6027 177.154C34.7988 176.635 35.1006 176.162 35.489 175.767C35.8773 175.371 36.3438 175.06 36.8587 174.854C37.3736 174.648 37.9257 174.551 38.48 174.57C39.7272 174.591 40.9244 175.064 41.85 175.9L43.16 173.9C41.8408 172.68 40.0958 172.027 38.3 172.08C37.4175 172.08 36.5437 172.254 35.7284 172.592C34.9131 172.929 34.1723 173.424 33.5483 174.048C32.9243 174.672 32.4293 175.413 32.0915 176.228C31.7538 177.044 31.58 177.918 31.58 178.8C31.58 179.682 31.7538 180.556 32.0915 181.372C32.4293 182.187 32.9243 182.928 33.5483 183.552C34.1723 184.176 34.9131 184.671 35.7284 185.008C36.5437 185.346 37.4175 185.52 38.3 185.52Z" fill="#D8BBAA"/>
<path d="M44.96 174.87H49.13H49.28V175.02V185.21H52.22V175.02V174.87H52.37H56.57V172.39H44.96V174.87Z" fill="#D8BBAA"/>
<path d="M67.03 177.33H61.03V177.15C61.1241 176.342 61.5149 175.598 62.1265 175.063C62.7381 174.527 63.527 174.237 64.34 174.25C64.7251 174.233 65.1094 174.299 65.4675 174.441C65.8257 174.584 66.1495 174.801 66.4178 175.077C66.6861 175.354 66.8927 175.685 67.0241 176.047C67.1555 176.409 67.2086 176.796 67.18 177.18V177.33H67.03ZM64.48 172.08C63.5986 172.052 62.7211 172.208 61.9034 172.538C61.0858 172.869 60.3461 173.366 59.7315 173.998C59.117 174.631 58.6411 175.385 58.3344 176.211C58.0276 177.038 57.8967 177.92 57.95 178.8C57.9325 179.704 58.1011 180.603 58.4452 181.439C58.7894 182.276 59.3019 183.032 59.9508 183.663C60.5997 184.293 61.3712 184.783 62.2174 185.102C63.0637 185.422 63.9665 185.564 64.87 185.52C66.7133 185.522 68.5033 184.902 69.95 183.76L68.81 181.67C67.7532 182.514 66.4519 182.995 65.1 183.04C64.5947 183.072 64.088 183.005 63.609 182.841C63.13 182.677 62.6882 182.419 62.309 182.084C61.9298 181.748 61.6207 181.341 61.3995 180.886C61.1783 180.43 61.0493 179.935 61.02 179.43V179.27H70.08C70.1332 178.902 70.1633 178.532 70.17 178.16C70.17 174.47 67.94 172.08 64.5 172.08" fill="#D8BBAA"/>
<path d="M80.57 185.18H83.86L79.66 178.77V178.69V178.61L83.73 172.36H80.39L78.39 175.86L77.95 176.68V176.76H77.72V176.67C77.72 176.67 77.48 176.18 77.31 175.86L75.31 172.36H71.91L75.98 178.61V178.69V178.77L71.81 185.18H75.07L77.3 181.48C77.4324 181.262 77.5493 181.035 77.65 180.8V180.71H77.89V180.79C77.89 180.79 78.09 181.2 78.26 181.47L80.57 185.18Z" fill="#D8BBAA"/>
<path d="M18.44 191.74H0V195.18H7.23V213.78H11.21V195.18H18.44V191.74Z" fill="#fff"/>
<path d="M28.88 203.72H21.24V203.48C21.3613 202.443 21.8633 201.489 22.6486 200.802C23.4339 200.114 24.4465 199.743 25.49 199.76C25.9756 199.752 26.4577 199.845 26.9054 200.033C27.3531 200.221 27.7568 200.501 28.0907 200.853C28.4246 201.206 28.6815 201.624 28.8449 202.082C29.0083 202.539 29.0748 203.026 29.04 203.51V203.72H28.88ZM25.63 197C20.71 197 17.27 200.53 17.27 205.59C17.27 210.65 20.99 214.18 26.12 214.18C28.4747 214.19 30.763 213.4 32.61 211.94L31.16 209.29C29.8093 210.366 28.1464 210.977 26.42 211.03C25.1164 211.096 23.8385 210.65 22.8594 209.787C21.8802 208.924 21.2775 207.712 21.18 206.41V206.19H32.75C32.8153 205.719 32.8521 205.245 32.86 204.77C32.86 200.06 30.02 197.01 25.63 197.01" fill="#fff"/>
<path d="M44.54 205.49L44.61 205.38L49.81 197.38H45.56L43.02 201.85C42.79 202.27 42.46 202.9 42.46 202.9L42.4 203.01H42.09L42.03 202.89C42.03 202.89 41.74 202.26 41.51 201.89L38.97 197.42H34.72L39.92 205.42L39.99 205.53L39.92 205.64L34.59 213.82H38.75L41.58 209.05C41.7513 208.771 41.9017 208.481 42.03 208.18L42.09 208.06H42.41V208.17C42.5571 208.469 42.7207 208.759 42.9 209.04L45.74 213.82H49.92L44.56 205.64L44.54 205.49Z" fill="#fff"/>
<path d="M52.65 213.78H56.42V200.75V200.55H56.62H63.57H63.77V200.75V213.78H67.55V197.4H52.65V213.78Z" fill="#fff"/>
<path d="M96.08 206.3L95.83 206.69C95.44 207.28 95.01 207.94 94.83 208.27V208.39H94.4V208.16C94.4 207.89 94.5 206.91 94.5 206.16V197.38H90.92V213.78H94.66L100.82 204.91L101.15 204.42C101.485 203.949 101.785 203.454 102.05 202.94V202.82H102.47V203.04C102.47 203.34 102.38 204.37 102.38 205.04V213.79H105.95V197.4H102.21L96.08 206.3Z" fill="#fff"/>
<path d="M121.3 203.72H113.66V203.48C113.781 202.443 114.283 201.489 115.069 200.802C115.854 200.114 116.867 199.743 117.91 199.76C118.396 199.752 118.878 199.845 119.325 200.033C119.773 200.221 120.177 200.501 120.511 200.853C120.845 201.206 121.101 201.624 121.265 202.082C121.428 202.539 121.495 203.026 121.46 203.51V203.72H121.3ZM118.04 197C113.13 197 109.69 200.53 109.69 205.59C109.69 210.65 113.41 214.17 118.54 214.17C120.895 214.18 123.183 213.391 125.03 211.93L123.58 209.28C122.227 210.359 120.56 210.969 118.83 211.02C117.528 211.084 116.253 210.636 115.276 209.773C114.299 208.91 113.698 207.7 113.6 206.4V206.18H125.19C125.255 205.709 125.292 205.235 125.3 204.76C125.3 200.05 122.46 197 118.06 197" fill="#fff"/>
<path d="M143.35 197.44L139.78 205.97C139.42 206.97 138.96 208.11 138.96 208.11V208.24H138.61V208.1C138.61 208.1 138.18 206.88 137.79 205.97L134.28 197.44H129.86L128.3 213.82H131.9L132.48 204.93C132.55 203.83 132.48 202.11 132.48 202.09V201.88H132.89V202C132.89 202 133.46 203.33 133.89 204.47L137.13 211.72H140.32L143.56 204.43C144.08 203.27 144.56 202.02 144.56 202.01V201.88H144.98V202.09C144.98 202.09 144.91 203.84 144.98 204.94L145.56 213.82H149.17L147.69 197.44H143.35Z" fill="#fff"/>
<path d="M162.12 205.37V205.3V205.24V205.18L162.15 205.13L167.27 197.44H163.12L159.1 203.77L159.04 203.86H158.93H156.89H156.69V203.66V197.44H152.91V213.82H156.69V207.21V207.01H156.89H159.06H159.17L159.23 207.1L163.58 213.82H167.93L162.15 205.42L162.12 205.37Z" fill="#fff"/>
<path d="M83.3 205.6C83.13 207.96 81.24 210.49 78.69 210.49H75.82V200.49H79.3C79.805 200.493 80.3038 200.602 80.7638 200.811C81.2238 201.019 81.6347 201.322 81.97 201.7C82.4412 202.224 82.8019 202.838 83.0304 203.504C83.259 204.171 83.3507 204.877 83.3 205.58M79.58 197.38H72.03V220.38H75.83V213.78H78.42C80.6696 213.85 82.8552 213.025 84.4974 211.486C86.1396 209.947 87.1043 207.819 87.18 205.57C87.2916 204.516 87.1801 203.451 86.8528 202.443C86.5254 201.435 85.9895 200.507 85.28 199.72C84.5439 198.96 83.658 198.362 82.6786 197.963C81.6991 197.563 80.6474 197.372 79.59 197.4" fill="#fff"/>
<path d="M180.85 209.55C180.427 210.039 179.901 210.429 179.31 210.692C178.719 210.954 178.077 211.084 177.43 211.07C176.787 211.077 176.151 210.941 175.567 210.673C174.982 210.405 174.464 210.012 174.05 209.52C173.128 208.435 172.646 207.043 172.7 205.62C172.641 204.209 173.116 202.827 174.03 201.75C174.446 201.262 174.965 200.873 175.549 200.61C176.134 200.347 176.769 200.217 177.41 200.23C178.057 200.214 178.7 200.34 179.294 200.597C179.888 200.854 180.419 201.237 180.85 201.72C181.781 202.793 182.267 204.181 182.21 205.6C182.283 207.058 181.796 208.489 180.85 209.6M182.02 197.53V199.66L181.68 199.31C180.998 198.612 180.191 198.049 179.3 197.65C178.435 197.279 177.502 197.092 176.56 197.1C175.538 197.091 174.526 197.301 173.593 197.717C172.66 198.133 171.826 198.744 171.15 199.51C169.634 201.211 168.835 203.433 168.92 205.71C168.858 207.971 169.687 210.166 171.23 211.82C171.914 212.59 172.753 213.207 173.692 213.629C174.632 214.051 175.65 214.27 176.68 214.27C177.571 214.277 178.455 214.107 179.28 213.77C180.173 213.374 180.987 212.819 181.68 212.13L182.02 211.8V213.8H185.6V197.48L182.02 197.53Z" fill="#fff"/>
</svg>
